<?xml version="1.0" encoding="UTF-8" standalone="no"?>
<!-- Created with Inkscape (http://www.inkscape.org/) -->

<svg
   xmlns:dc="http://purl.org/dc/elements/1.1/"
   xmlns:cc="http://creativecommons.org/ns#"
   xmlns:rdf="http://www.w3.org/1999/02/22-rdf-syntax-ns#"
   xmlns:svg="http://www.w3.org/2000/svg"
   xmlns="http://www.w3.org/2000/svg"
   xmlns:sodipodi="http://sodipodi.sourceforge.net/DTD/sodipodi-0.dtd"
   xmlns:inkscape="http://www.inkscape.org/namespaces/inkscape"
   id="svg3157"
   version="1.1"
   inkscape:version="0.48+devel r"
   width="200"
   height="200"
   sodipodi:docname="2014-Colony_Icon.svg"
   inkscape:export-filename="/home/albert/Documents/Google Drive/Jupiter Broadcasting/icons/Jupiter Colony/2014-Colony_Icon.png"
   inkscape:export-xdpi="225"
   inkscape:export-ydpi="225">
  <sodipodi:namedview
     pagecolor="#000000"
     bordercolor="#666666"
     borderopacity="1"
     objecttolerance="10"
     gridtolerance="10"
     guidetolerance="10"
     inkscape:pageopacity="1"
     inkscape:pageshadow="2"
     inkscape:window-width="1280"
     inkscape:window-height="757"
     id="namedview3159"
     showgrid="false"
     showguides="true"
     inkscape:guide-bbox="true"
     inkscape:snap-global="false"
     inkscape:zoom="2"
     inkscape:cx="128.10026"
     inkscape:cy="98.116807"
     inkscape:window-x="0"
     inkscape:window-y="25"
     inkscape:window-maximized="1"
     inkscape:current-layer="svg3157"
     fit-margin-top="0"
     fit-margin-left="0"
     fit-margin-right="0"
     fit-margin-bottom="2.7755576e-17" />
  <metadata
     id="metadata3163">
    <rdf:RDF>
      <cc:Work
         rdf:about="">
        <dc:format>image/svg+xml</dc:format>
        <dc:type
           rdf:resource="http://purl.org/dc/dcmitype/StillImage" />
        <dc:title></dc:title>
      </cc:Work>
    </rdf:RDF>
  </metadata>
  <defs
     id="defs3161" />
  <g
     id="g4257"
     transform="matrix(0.24012637,0,0,0.24012637,2.2554886,15.305656)">
    <path
       sodipodi:type="star"
       style="fill:#6d6e70;fill-opacity:0.78431373;stroke:none"
       id="path4247"
       sodipodi:sides="6"
       sodipodi:cx="-446.20877"
       sodipodi:cy="799.37555"
       sodipodi:r1="176.79141"
       sodipodi:r2="163.33395"
       sodipodi:arg1="0.68281831"
       sodipodi:arg2="1.2064171"
       inkscape:flatsided="true"
       inkscape:rounded="0"
       inkscape:randomized="0"
       d="m -309.05444,910.92774 -165.1842,63.00304 -137.15433,-111.55219 28.02986,-174.55523 165.1842,-63.00305 137.15434,111.5522 z"
       transform="matrix(0.42403959,-0.13322591,0.13322591,0.42403959,559.09533,255.5785)" />
    <path
       transform="matrix(0.43847404,0,0,0.43847404,841.19065,211.13595)"
       d="m -352.70749,957.93872 -184.07037,1.6929 -93.50128,-158.56317 90.56909,-160.25607 184.07037,-1.6929 93.50128,158.56317 z"
       inkscape:randomized="0"
       inkscape:rounded="0"
       inkscape:flatsided="true"
       sodipodi:arg2="1.5615996"
       sodipodi:arg1="1.0380008"
       sodipodi:r2="163.33395"
       sodipodi:r1="184.07816"
       sodipodi:cy="799.37555"
       sodipodi:cx="-446.20877"
       sodipodi:sides="6"
       id="path4245"
       style="fill:#6d6e70;fill-opacity:0.78431373;stroke:none"
       sodipodi:type="star" />
    <path
       transform="matrix(0.42779831,0.0229469,-0.0229469,0.42779831,815.45266,119.27113)"
       d="m -309.05444,910.92774 -165.1842,63.00304 -137.15433,-111.55219 28.02986,-174.55523 165.1842,-63.00305 137.15434,111.5522 z"
       inkscape:randomized="0"
       inkscape:rounded="0"
       inkscape:flatsided="true"
       sodipodi:arg2="1.2064171"
       sodipodi:arg1="0.68281831"
       sodipodi:r2="163.33395"
       sodipodi:r1="176.79141"
       sodipodi:cy="799.37555"
       sodipodi:cx="-446.20877"
       sodipodi:sides="6"
       id="path4249"
       style="fill:#6d6e70;fill-opacity:0.78431373;stroke:none"
       sodipodi:type="star" />
    <path
       transform="matrix(0.31771264,-0.21370922,0.21370922,0.31771264,370.5085,236.9985)"
       d="m -309.05444,910.92774 -165.1842,63.00304 -137.15433,-111.55219 28.02986,-174.55523 165.1842,-63.00305 137.15434,111.5522 z"
       inkscape:randomized="0"
       inkscape:rounded="0"
       inkscape:flatsided="true"
       sodipodi:arg2="1.2064171"
       sodipodi:arg1="0.68281831"
       sodipodi:r2="163.33395"
       sodipodi:r1="176.79141"
       sodipodi:cy="799.37555"
       sodipodi:cx="-446.20877"
       sodipodi:sides="6"
       id="path4251"
       style="fill:#6d6e70;fill-opacity:0.78431373;stroke:none"
       sodipodi:type="star" />
    <path
       sodipodi:type="star"
       style="fill:#6d6e70;fill-opacity:0.78431373;stroke:none"
       id="path4253"
       sodipodi:sides="6"
       sodipodi:cx="-446.20877"
       sodipodi:cy="799.37555"
       sodipodi:r1="176.79141"
       sodipodi:r2="163.33395"
       sodipodi:arg1="0.68281831"
       sodipodi:arg2="1.2064171"
       inkscape:flatsided="true"
       inkscape:rounded="0"
       inkscape:randomized="0"
       d="m -309.05444,910.92774 -165.1842,63.00304 -137.15433,-111.55219 28.02986,-174.55523 165.1842,-63.00305 137.15434,111.5522 z"
       transform="matrix(0.30492438,-0.17328976,0.17328976,0.30492438,256.30081,300.00239)" />
    <path
       transform="matrix(0.22285742,-0.12665077,0.12665077,0.22285742,216.73195,466.8793)"
       d="m -309.05444,910.92774 -165.1842,63.00304 -137.15433,-111.55219 28.02986,-174.55523 165.1842,-63.00305 137.15434,111.5522 z"
       inkscape:randomized="0"
       inkscape:rounded="0"
       inkscape:flatsided="true"
       sodipodi:arg2="1.2064171"
       sodipodi:arg1="0.68281831"
       sodipodi:r2="163.33395"
       sodipodi:r1="176.79141"
       sodipodi:cy="799.37555"
       sodipodi:cx="-446.20877"
       sodipodi:sides="6"
       id="path4255"
       style="fill:#6d6e70;fill-opacity:0.78431373;stroke:none"
       sodipodi:type="star" />
  </g>
  <ellipse
     style="fill:#eeeeee;fill-opacity:1;stroke:none"
     id="path3368"
     cx="83.167198"
     cy="68.141937"
     rx="0.3834278"
     ry="0.59744972"
     transform="matrix(0.94233816,0.3346622,-0.29469768,0.95559054,0,0)" />
  <ellipse
     transform="matrix(0.93441871,0.35617646,-0.31652623,0.94858376,0,0)"
     ry="0.59744972"
     rx="0.3834278"
     cy="48.609726"
     cx="93.208565"
     id="ellipse3379"
     style="fill:#eeeeee;fill-opacity:1;stroke:none" />
  <path
     style="fill:#ffffff;fill-opacity:1;stroke:none"
     d="m 66.71875,94.3125 c 0.21875,-0.125 5.71875,-6.65625 5.71875,-6.65625 -1.695933,0.51547 -2.563737,1.205962 -4.15625,3 -1.201647,1.801492 -1.505346,2.312555 -1.5625,3.65625 z"
     id="path3381"
     inkscape:connector-curvature="0"
     sodipodi:nodetypes="cccc" />
  <path
     sodipodi:nodetypes="cccc"
     inkscape:connector-curvature="0"
     id="path4183"
     d="m 53.395338,120.64089 c 0.126719,-0.21776 0.990574,-11.56303 0.990574,-11.56303 -1.209652,1.29563 -3.083634,2.45293 -3.56335,4.80336 -0.137686,2.16111 1.949195,5.56805 2.572776,6.75967 z"
     style="fill:#ffffff;fill-opacity:1;stroke:none" />
  <path
     style="fill:#ffffff;fill-opacity:1;stroke:none"
     d="M 122.50042,98.329914 134.18015,86.367943 122.82807,80.491311 113.47529,90.99572 Z"
     id="path4185"
     inkscape:connector-curvature="0"
     sodipodi:nodetypes="ccccc" />
  <path
     sodipodi:nodetypes="ccccc"
     inkscape:connector-curvature="0"
     id="path4187"
     d="M 79.543683,162.67663 139.1299,106.69726 89.417275,75.895115 52.840884,113.26958 Z"
     style="fill:#ffffff;fill-opacity:1;stroke:none" />
  <path
     style="fill:#6d6e71;stroke:none;stroke-width:1px;stroke-linecap:butt;stroke-linejoin:miter;stroke-opacity:1;fill-opacity:1"
     d="m 91,75.5 17,11.75 c 0,0 8.75,-8.75 8.25,-8.875 -0.5,-0.125 -18.125,-9.75 -18.125,-9.75 z"
     id="path4213"
     inkscape:connector-curvature="0" />
  <g
     id="g4237"
     transform="matrix(0.22561796,0.02605216,0.02066538,0.22383781,-2.6283808,0.51240732)"
     style="fill:#0b4b75;fill-opacity:1">
    <path
       inkscape:connector-curvature="0"
       id="rect3179"
       d="m 421.09404,246.67553 c -6.2457,0.27873 -13.98486,4.03964 -19.5625,9.875 l -88.65625,92.78125 c -0.13382,-0.19103 -0.29729,-0.37443 -0.46875,-0.53125 -1.87053,-1.71086 -5.64388,-1.04842 -10.34375,1.40625 l 1.125,-29.53125 c 1.03908,-0.49556 2.106,-1.2523 3.0625,-2.25 2.47699,-2.58368 3.21971,-5.68134 1.6875,-6.90625 -1.51608,-1.21202 -4.69494,-0.12836 -7.125,2.40625 -0.36763,0.38344 -0.67836,0.7873 -0.96875,1.1875 0.0951,-0.0289 0.19458,-0.0595 0.28125,-0.0312 0.41379,0.13481 0.51962,0.92243 0.25,1.75 -0.26962,0.82757 -0.83621,1.38481 -1.25,1.25 -0.29208,-0.0952 -0.41031,-0.50328 -0.375,-1.03125 -0.62416,1.56753 -0.57493,2.98854 0.3125,3.75 0.88119,0.75612 2.37873,0.65629 3.96875,-0.0625 l -6.625,32.96875 c -3.8657,2.74315 -8.04789,6.37185 -12.125,10.625 -4.73767,4.94225 -8.64505,10.0441 -11.40625,14.625 l -31.6875,6.5625 c 1.28193,-2.12085 1.63425,-4.31011 0.75,-5.5 -1.16814,-1.57193 -4.07011,-0.78442 -6.5,1.75 -0.74171,0.77361 -1.3483,1.61622 -1.8125,2.46875 0.41856,-0.51419 0.90243,-0.78528 1.25,-0.625 0.49653,0.22897 0.52512,1.21556 0.0625,2.21875 -0.46262,1.00319 -1.22222,1.63522 -1.71875,1.40625 -0.28795,-0.13278 -0.40664,-0.52994 -0.375,-1.03125 -0.32356,1.22008 -0.29416,2.32124 0.21875,3.0625 1.1334,1.63796 4.08563,0.89605 6.5625,-1.6875 0.57692,-0.60175 1.0569,-1.24777 1.46875,-1.90625 l 28.6875,-0.75 c -1.63099,4.00194 -1.93391,7.21782 -0.5625,8.9375 0.1645,0.20628 0.35651,0.37474 0.5625,0.53125 l -71.375,74.6875 c -7.35291,7.69264 -11.13944,19.0413 -8.40625,25.6875 l 91.03125,221.375 c 6.71705,16.33358 22.21531,19.89179 34.375,7.125 l 20.875,-21.9375 4.0625,53.625 c 0.1582,2.08788 1.11894,2.89682 2.15625,1.8125 l 69.46875,-72.625 c 1.03662,-1.08359 1.63374,-3.52083 1.3125,-5.4375 l -8.3125,-49.46875 161,-169.0625 48.25,7.1875 c 1.8795,0.2797 4.24803,-0.3887 5.28125,-1.46875 l 69.1875,-72.3125 c 1.03254,-1.07933 0.19675,-2.07686 -1.84375,-2.1875 l -52.65625,-2.84375 16.6875,-17.46875 c 12.07644,-12.6794 8.38815,-28.37111 -7.59375,-34.90625 l -216.875,-88.6875 c -1.22233,-0.49982 -2.60903,-0.7656 -4.09375,-0.8125 -0.40211,-0.0127 -0.80237,-0.0186 -1.21875,0 z m 10.59375,23.6875 c 1.80237,-0.0574 3.45967,0.19855 4.875,0.84375 5.81948,2.65287 5.21337,10.55665 -1.5,17.5625 -6.7138,7.00629 -16.72989,10.18636 -22.21875,7.1875 -5.33968,-2.91735 -4.38755,-10.61638 2,-17.28125 4.79036,-4.99836 11.43665,-8.14029 16.84375,-8.3125 z m -2.03125,3 c -3.49212,0.14222 -7.74139,1.88717 -11.53125,5.78125 2.93982,-1.80936 8.09517,-3.50383 11.5,-1.875 3.94368,1.88661 5.05893,5.90597 3.1875,9.0625 7.39504,-7.64252 3.51052,-13.24026 -3.15625,-12.96875 z m -13.375,7.71875 c -10.35694,11.07648 3.48519,18.69149 14.6875,7.0625 -3.56817,2.47167 -8.81824,3.38113 -12.65625,1.375 -3.31353,-1.73199 -3.34133,-5.81235 -2.03125,-8.4375 z m 51.15625,5.6875 c 2.07241,-0.009 4.01483,0.36249 5.6875,1.125 6.89425,3.14282 6.69241,11.95556 -0.625,19.59375 -7.31791,7.63873 -18.65355,10.86527 -25.15625,7.3125 -6.11627,-3.34165 -5.7084,-11.51517 0.625,-18.59375 0.20413,-0.22818 0.40838,-0.46142 0.625,-0.6875 5.19887,-5.42587 12.62652,-8.72176 18.84375,-8.75 z m -2.125,3.3125 c -4.0178,0.0494 -8.81846,1.866 -12.9375,6.09375 3.2693,-1.92765 9.06964,-3.67509 13.09375,-1.75 4.66829,2.23325 6.27438,6.77351 4.3125,10.25 8.0602,-8.32487 3.2016,-14.68812 -4.46875,-14.59375 z m -14.9375,8.1875 c -11.23046,12.03923 5.16872,21.04353 17.375,8.375 -3.96509,2.65292 -9.95577,3.50027 -14.5,1.125 -3.91707,-2.04746 -4.2217,-6.60995 -2.875,-9.5 z m 85.15625,0.9375 c 0.25634,0.005 0.50332,0.0653 0.71875,0.15625 l 0.125,0.0625 c 0.86511,0.36539 0.96422,1.31401 0.1875,2.125 l -46.96875,49.03125 c -0.77708,0.81136 -2.03032,1.07727 -2.8125,0.625 l -0.125,-0.0625 c -0.77912,-0.45049 -0.80349,-1.475 -0.0312,-2.28125 l 46.65625,-48.71875 c 0.57889,-0.60441 1.48099,-0.95296 2.25,-0.9375 z m 5.53125,2.375 c 0.2611,0.006 0.49867,0.0633 0.71875,0.15625 l 0.1875,0.0625 c 0.88391,0.3734 0.94138,1.33644 0.15625,2.15625 l -47.4375,49.5625 c -0.78548,0.82018 -2.07581,1.11842 -2.875,0.65625 l -0.15625,-0.0937 c -0.79596,-0.4603 -0.81173,-1.49758 -0.0312,-2.3125 l 47.15625,-49.25 c 0.58507,-0.61091 1.49794,-0.95572 2.28125,-0.9375 z m -157.125,1.1875 c 2.0836,-0.0583 4.00748,0.35628 5.59375,1.3125 l 156.3125,94.21875 c 10.632,6.40904 12.49993,19.11103 3.8125,28.1875 l -232.6875,243.125 c -8.70729,9.09722 -20.32312,6.58396 -25.8125,-5.21875 l -80.6875,-173.46875 c -2.61886,-5.63079 -0.0371,-14.90088 5.71875,-20.90625 l 153.90625,-160.5625 c 3.95121,-4.12247 9.25983,-6.55914 13.84375,-6.6875 z m 163,1.34375 c 0.26624,0.007 0.52489,0.0611 0.75,0.15625 l 0.15625,0.0625 c 0.90403,0.38194 1.01278,1.35836 0.21875,2.1875 l -48.03125,50.125 c -0.7944,0.82952 -2.08886,1.09774 -2.90625,0.625 l -0.125,-0.0625 c -0.81412,-0.47087 -0.82054,-1.51958 -0.0312,-2.34375 l 47.6875,-49.8125 c 0.5917,-0.61784 1.48252,-0.95872 2.28125,-0.9375 z m 6.09375,2.5 c 0.27155,0.008 0.51969,0.059 0.75,0.15625 l 0.1875,0.0625 c 0.92507,0.39071 1.02193,1.41128 0.21875,2.25 l -48.5625,50.6875 c -0.80355,0.83911 -2.1011,1.13987 -2.9375,0.65625 l -0.1875,-0.0937 c -0.83295,-0.48163 -0.86077,-1.54141 -0.0625,-2.375 l 48.25,-50.375 c 0.59844,-0.62491 1.52909,-0.99302 2.34375,-0.96875 z m 6.09375,2.75 c 0.27702,0.009 0.54558,0.0566 0.78125,0.15625 l 0.15625,0.0625 c 0.94656,0.40008 1.06254,1.40147 0.25,2.25 l -49.125,51.3125 c -0.81291,0.84893 -2.14417,1.12018 -3,0.625 l -0.15625,-0.0625 c -0.85233,-0.49315 -0.87009,-1.56294 -0.0625,-2.40625 l 48.78125,-50.96875 c 0.60539,-0.6322 1.54393,-0.99641 2.375,-0.96875 z m 6.125,2.28125 c 0.28239,0.0102 0.54029,0.0545 0.78125,0.15625 l 0.1875,0.0937 c 0.96783,0.40853 1.07147,1.42337 0.25,2.28125 l -49.65625,51.84375 c -0.82185,0.85828 -2.18739,1.16198 -3.0625,0.65625 l -0.15625,-0.0937 c -0.87148,-0.50364 -0.91015,-1.58494 -0.0937,-2.4375 l 49.34375,-51.53125 c 0.612,-0.63912 1.55909,-0.99932 2.40625,-0.96875 z m 5.875,2.78125 c 0.28779,0.0114 0.53499,0.0834 0.78125,0.1875 l 0.1875,0.0625 c 0.98917,0.4181 1.11186,1.44502 0.28125,2.3125 l -50.21875,52.4375 c -0.83102,0.8679 -2.23063,1.17372 -3.125,0.65625 l -0.125,-0.0937 c -0.89063,-0.51531 -0.95044,-1.63796 -0.125,-2.5 l 49.875,-52.09375 c 0.61878,-0.64623 1.60539,-1.00289 2.46875,-0.96875 z m -274.6875,41.96875 c -13.88687,10.45802 -24,29.15625 -24,29.15625 0,0 4.7984,-16.24088 24,-29.15625 z m -85.8125,104.78125 c -2.48127,2.09906 -11.56985,10.44887 -14.40625,22.34375 -2.88116,12.08263 3.68635,24.9216 5.375,27.9375 -1.82316,-2.96239 -9.82216,-16.68186 -8.1875,-27.0625 1.61115,-10.23145 14.11851,-20.74463 17.21875,-23.21875 z"
       style="fill:#0b4b75;fill-opacity:1;stroke:none" />
  </g>
  <path
     style="fill:#6d6e70;fill-opacity:0.95294118;stroke:none"
     d="M 86.204661,42.413702 C 69.974818,42.638278 54.869882,48.745781 43.220967,58.882076 l 0.181282,-0.104588 -2.091671,4.204249 4.678356,0.432274 -4.16938,2.168359 3.534908,3.102638 -4.650463,-0.690251 1.03886,4.580746 -3.353638,-3.290883 -1.854603,4.315799 -0.780892,-4.629556 -3.472159,2.063778 c -6.198751,8.857015 -10.336389,19.347866 -11.636627,30.845069 -2.621168,23.17738 6.918737,44.91447 23.538194,58.8664 C 32.610023,147.1379 26.476205,128.96551 28.642067,109.8141 32.799601,73.051561 65.966273,46.622833 102.72882,50.780363 c 13.58515,1.536365 25.75425,7.04258 35.49555,15.220342 C 127.58206,53.486983 112.34976,44.830672 94.738663,42.839008 91.866591,42.514204 89.020829,42.37474 86.204661,42.413702 Z"
     id="path3167"
     inkscape:connector-curvature="0" />
  <g
     transform="matrix(0.19275384,0,0,0.20892949,23.407915,14.211095)"
     id="g3202" />
  <g
     id="g3236"
     transform="matrix(0.24012637,0,0,0.24012637,6.3286311,8.6397731)" />
  <text
     xml:space="preserve"
     style="font-size:9.60505486px;font-style:normal;font-weight:normal;line-height:125%;letter-spacing:0px;word-spacing:0px;fill:#ffffff;fill-opacity:1;stroke:none;font-family:Sans"
     x="105.39388"
     y="173.34641"
     id="text4198"
     sodipodi:linespacing="125%"><tspan
       sodipodi:role="line"
       id="tspan4200"
       x="105.39388"
       y="173.34641"
       style="font-size:18.75px;font-style:normal;font-variant:normal;font-weight:normal;font-stretch:normal;letter-spacing:3px;fill:#ffffff;fill-opacity:1;font-family:Ubuntu;-inkscape-font-specification:Ubuntu">COLONY</tspan></text>
  <text
     xml:space="preserve"
     style="font-size:9.60505486px;font-style:normal;font-weight:normal;line-height:125%;letter-spacing:0px;word-spacing:0px;fill:#0b4b75;fill-opacity:1;stroke:none;font-family:Sans"
     x="2.6904182"
     y="35.321335"
     id="text4202"
     sodipodi:linespacing="125%"><tspan
       sodipodi:role="line"
       id="tspan4204"
       x="2.6904182"
       y="35.321335"
       style="font-size:25px;font-style:normal;font-variant:normal;font-weight:normal;font-stretch:normal;letter-spacing:2px;fill:#0b4b75;fill-opacity:1;font-family:Ubuntu;-inkscape-font-specification:Ubuntu">JUPITER</tspan></text>
  <g
     inkscape:groupmode="layer"
     id="layer3"
     inkscape:label="Base"
     style="display:inline"
     transform="translate(-64.613797,-542.75913)" />
</svg>
